<?xml version="1.0" standalone="no"?>
<!DOCTYPE svg PUBLIC "-//W3C//DTD SVG 20010904//EN"
 "http://www.w3.org/TR/2001/REC-SVG-20010904/DTD/svg10.dtd">
<svg version="1.0" xmlns="http://www.w3.org/2000/svg"
 width="469.000000pt" height="531.000000pt" viewBox="0 0 469.000000 531.000000"
 preserveAspectRatio="xMidYMid meet">

<g transform="translate(0.000000,531.000000) scale(0.100000,-0.100000)"
fill="#000000" stroke="none">
<path d="M2160 4284 c-109 -20 -296 -82 -391 -130 -143 -72 -240 -144 -374
-279 -71 -72 -139 -146 -149 -165 l-20 -34 45 35 c361 292 399 319 533 384
228 110 477 157 718 135 216 -20 396 -78 671 -216 92 -46 170 -84 174 -84 13
0 -60 58 -150 121 -148 103 -308 172 -512 221 -112 27 -424 34 -545 12z"/>
<path d="M3037 3793 c-10 -204 -8 -2083 2 -2083 19 0 208 150 292 232 308 299
498 574 597 863 21 62 42 161 42 202 l0 23 -197 -1 c-109 -1 -227 -4 -263 -8
l-65 -6 0 -90 0 -90 142 -3 142 -3 -19 -49 c-34 -86 -76 -164 -148 -271 -68
-101 -222 -288 -296 -358 l-36 -35 0 791 c0 443 4 794 9 797 12 8 141 -37 203
-71 70 -38 179 -142 231 -220 l41 -63 99 0 99 0 -7 27 c-12 49 -56 132 -101
192 -162 216 -413 341 -685 341 l-76 0 -6 -117z"/>
<path d="M1750 3819 c-24 -33 -59 -73 -77 -89 l-33 -29 -2 -548 -3 -548 -33
135 c-19 74 -52 209 -74 300 -22 91 -43 168 -47 172 -3 3 -51 8 -105 9 -79 3
-101 0 -107 -11 -5 -8 -27 -109 -49 -225 -52 -266 -51 -265 -77 -195 -95 254
-62 466 113 736 14 20 12 20 -69 20 -45 -1 -96 2 -112 7 -29 7 -31 6 -68 -67
-88 -174 -127 -352 -109 -501 20 -167 79 -328 183 -504 53 -88 169 -251 179
-251 5 0 31 120 88 408 16 78 32 144 37 145 4 1 27 -79 51 -178 109 -449 167
-682 175 -702 8 -22 202 -173 221 -173 8 0 9 300 5 1039 -5 986 -6 1041 -24
1075 l-18 36 -45 -61z"/>
<path d="M2815 3838 c-86 -29 -188 -98 -291 -200 l-91 -89 -88 86 c-132 129
-240 193 -355 211 l-40 7 6 -1099 c7 -1253 -6 -1114 107 -1199 172 -131 299
-221 329 -231 18 -6 44 -8 58 -4 14 4 118 74 229 156 154 112 207 157 218 181
11 26 13 229 13 1118 0 1027 -1 1085 -17 1084 -10 0 -45 -9 -78 -21z m-101
-510 c-1 -117 -3 -522 -3 -900 l-1 -688 -92 -68 c-51 -37 -116 -84 -145 -105
l-51 -37 -136 101 -136 101 0 904 c0 532 4 904 9 904 15 0 199 -200 237 -257
19 -29 39 -53 43 -53 5 0 24 26 44 58 42 68 215 265 226 257 5 -2 7 -100 5
-217z"/>
<path d="M1165 2123 c64 -154 276 -373 461 -479 56 -31 192 -84 218 -84 6 0
-23 21 -64 46 -97 61 -122 79 -261 196 -109 91 -185 174 -272 294 -36 51 -54
64 -83 64 -12 0 -12 -5 1 -37z"/>
<path d="M3543 2000 c-51 -59 -120 -132 -155 -162 -58 -51 -274 -207 -340
-246 -34 -20 -37 -36 -5 -27 255 78 481 264 573 472 14 31 24 59 22 63 -2 4
-44 -41 -95 -100z"/>
</g>
</svg>
